<svg xmlns="http://www.w3.org/2000/svg" viewBox="0 0 128 128" role="img" aria-label="Counter Table panel logo">
  <defs>
    <linearGradient id="bg" x1="16" y1="12" x2="112" y2="116" gradientUnits="userSpaceOnUse">
      <stop offset="0" stop-color="#0b3a6f" />
      <stop offset="1" stop-color="#1d6fbf" />
    </linearGradient>
    <linearGradient id="accent" x1="0" y1="0" x2="1" y2="1">
      <stop offset="0" stop-color="#ffd166" />
      <stop offset="1" stop-color="#ff8c42" />
    </linearGradient>
  </defs>

  <rect x="8" y="8" width="112" height="112" rx="24" fill="url(#bg)" />

  <rect x="24" y="30" width="80" height="68" rx="10" fill="#f7fbff" />
  <rect x="24" y="30" width="80" height="16" rx="10" fill="#dceeff" />

  <rect x="30" y="52" width="14" height="38" rx="4" fill="url(#accent)" />
  <rect x="48" y="52" width="22" height="8" rx="3" fill="#9cc2e8" />
  <rect x="48" y="66" width="22" height="8" rx="3" fill="#9cc2e8" />
  <rect x="48" y="80" width="22" height="8" rx="3" fill="#9cc2e8" />
  <rect x="74" y="52" width="24" height="8" rx="3" fill="#9cc2e8" />
  <rect x="74" y="66" width="24" height="8" rx="3" fill="#9cc2e8" />
  <rect x="74" y="80" width="24" height="8" rx="3" fill="#9cc2e8" />

  <circle cx="96" cy="28" r="16" fill="url(#accent)" />
  <text x="96" y="33" text-anchor="middle" font-family="Arial, sans-serif" font-size="16" font-weight="700" fill="#102a43">#</text>
</svg>
